<?xml version="1.0" encoding="UTF-8" standalone="no"?>
<!-- Created with Inkscape (http://www.inkscape.org/) -->

<svg
   xmlns:dc="http://purl.org/dc/elements/1.1/"
   xmlns:cc="http://creativecommons.org/ns#"
   xmlns:rdf="http://www.w3.org/1999/02/22-rdf-syntax-ns#"
   xmlns:svg="http://www.w3.org/2000/svg"
   xmlns="http://www.w3.org/2000/svg"
   xmlns:sodipodi="http://sodipodi.sourceforge.net/DTD/sodipodi-0.dtd"
   xmlns:inkscape="http://www.inkscape.org/namespaces/inkscape"
   width="213.30687mm"
   height="216.04106mm"
   viewBox="0 0 755.81174 765.49982"
   id="svg4206"
   version="1.1"
   inkscape:version="0.91 r13725"
   sodipodi:docname="face.svg"
   inkscape:export-filename="D:\martin\Documents\Unity Games\LD38-Small-World\Assets\Sprites\MG_Spew\face3.png"
   inkscape:export-xdpi="78.536926"
   inkscape:export-ydpi="78.536926">
  <defs
     id="defs4208" />
  <sodipodi:namedview
     id="base"
     pagecolor="#ffffff"
     bordercolor="#666666"
     borderopacity="1.0"
     inkscape:pageopacity="0.0"
     inkscape:pageshadow="2"
     inkscape:zoom="0.49497475"
     inkscape:cx="613.05329"
     inkscape:cy="382.63693"
     inkscape:document-units="px"
     inkscape:current-layer="layer3"
     showgrid="false"
     inkscape:window-width="1920"
     inkscape:window-height="1017"
     inkscape:window-x="-8"
     inkscape:window-y="-8"
     inkscape:window-maximized="1"
     fit-margin-top="0"
     fit-margin-left="0"
     fit-margin-right="0"
     fit-margin-bottom="0" />
  <metadata
     id="metadata4211">
    <rdf:RDF>
      <cc:Work
         rdf:about="">
        <dc:format>image/svg+xml</dc:format>
        <dc:type
           rdf:resource="http://purl.org/dc/dcmitype/StillImage" />
        <dc:title></dc:title>
      </cc:Work>
    </rdf:RDF>
  </metadata>
  <g
     inkscape:label="Layer 1"
     inkscape:groupmode="layer"
     id="layer1"
     transform="translate(408.59578,-323.3517)"
     style="display:none">
    <path
       style="fill:#0a0a0a;fill-opacity:1;fill-rule:evenodd;stroke:#0a0a0a;stroke-width:1px;stroke-linecap:butt;stroke-linejoin:miter;stroke-opacity:1"
       d="m -407.74449,1008.3952 c 94.97941,23.1261 188.09924,46.156 287.53634,62.1498 47.3709,-0.018 143.862053,27.506 137.380743,14.1421 26.472425,-26.2321 52.456551,-85.61771 81.822356,-117.17771 1.249871,-6.69555 8.429131,-15.76286 14.142141,-24.24366 16.08157,-40.00965 18.60047,-39.14447 31.31472,-57.5787 8.55518,-8.28069 18.89648,-14.77528 30.30458,-20.20305 67.68616,-18.17918 26.06219,-22.43256 58.38707,-61.82851 l 57.02286,-37.16643 c 2.50794,-6.13068 -17.77476,-59.98736 -14.39468,-62.62946 l 22.22336,-4.04061 c 0,0 18.2584,-11.46501 10.87708,-17.23387 -5.80625,-4.53787 -28.31388,-24.25352 -26.02937,-28.223 8.71096,-7.53886 19.81153,-7.90893 30.30458,-10.10152 30.71234,13.45407 40.0046,-27.0298 29.29442,-38.3858 -34.94093,-22.91233 -64.57799,-46.88543 -94.95434,-70.71068 -18.81504,-3.02913 -24.83736,-18.33927 -19.84591,-44.22263 -39.72707,-94.62471 -58.6063,-96.5924 -82.17949,-119.42208 C 96.87518,340.87647 44.194584,332.3401 -9.0913729,327.07268 c -54.9407151,-2.47455 -110.8271571,-5.80026 -156.5736471,0 -54.97028,4.78047 -96.10388,20.63029 -127.27922,44.44671 -36.94745,26.1465 -65.19165,51.45074 -72.73098,74.75129 -39.75642,111.05261 -23.97701,146.54415 -23.23351,161.6244 25.41353,77.68685 53.69884,74.96413 80.8122,105.05587 10.92484,21.51772 20.32857,50.64097 27.44744,91.18857 -15.07116,26.58315 -25.80864,49.85855 -12.82561,91.40394 -10.26962,10.92851 -12.50405,25.30068 -16.47933,38.92676 -37.08513,18.99663 -69.69657,37.46694 -74.80205,52.70125 -10.01865,7.07458 -17.73156,14.14913 -22.98841,21.22373 z"
       id="path4765"
       inkscape:connector-curvature="0"
       sodipodi:nodetypes="cccccccccccsccccccccccccccccc" />
  </g>
  <g
     inkscape:groupmode="layer"
     id="layer3"
     inkscape:label="Layer 3"
     transform="translate(408.59578,-323.3517)"
     style="display:none">
    <path
       style="fill:#858585;fill-opacity:1;fill-rule:evenodd;stroke:#858585;stroke-width:1px;stroke-linecap:butt;stroke-linejoin:miter;stroke-opacity:1"
       d="m -29.82751,1083.1438 c 20.54674,-26.5429 44.36092,-49.6224 65.68792,-76.7435 L 52.02286,981.65152 59.51234,964.1244 70.2056,947.30633 c 2.17112,-13.80955 -0.33749,-28.72021 -2.0203,-43.43656 l 15.65736,5.05076 17.17259,-7.57614 7.57615,4.04061 17.17259,-5.05076 6.06092,2.52538 c -6.37748,13.9522 -12.94567,27.78997 -18.18275,42.4264 -6.04536,8.6822 -10.54502,15.81871 -15.81754,23.72807 -25.10605,30.89552 -54.96603,83.41451 -82.19527,119.18051 -15.34079,0.9555 -30.32943,-3.0191 -45.45686,-5.0508 z"
       id="path4769"
       inkscape:connector-curvature="0"
       sodipodi:nodetypes="ccccccccccccccc" />
    <path
       sodipodi:nodetypes="cccscccsssssccscsccsccccccccccccccccc"
       inkscape:connector-curvature="0"
       id="path4771"
       d="m -407.74449,1008.3952 c 94.97941,23.1261 188.09924,46.156 287.53634,62.1498 7.05762,-0.02 23.98395,1.0799 33.84011,2.5253 13.55106,-19.1651 39.36255,-37.1172 61.08938,-65.9394 17.04634,-22.61324 8.28982,-49.40722 19.36137,-54.62538 36.43919,-17.17425 22.22337,-39.54689 13.24268,-48.63321 8.7575,-10.97169 15.87036,-30.43902 18.21785,-59.88268 7.78469,-24.67478 3.4609,-64.70631 4.68027,-79.53451 0.50298,-6.11643 0.87336,-14.63079 7.27279,-9.37457 2.55869,2.1016 3.29343,23.5654 9.57543,22.80059 10.89941,-1.32696 7.02244,-16.7051 6.35242,-21.54545 -3.09963,-22.39264 0.56432,-50.55181 17.94104,-52.60891 14.40025,-1.70474 21.4789,-7.47983 35.46444,-7.50168 -0.97004,-3.39833 50.94317,-19.12884 80.50749,-18.41645 1.6715,-4.29816 56.36587,3.89372 63.31067,21.5606 4.67611,11.89556 10.81911,16.10298 11.27233,9.17868 0.75266,-1.83987 -1.76545,-14.13259 -0.64645,-15.18174 1.65137,-1.5483 8.76735,11.42485 14.49797,10.49338 l 22.22336,-4.04061 c 0,0 18.2584,-11.46501 10.87708,-17.23387 -5.80625,-4.53787 -28.31388,-24.25352 -26.02937,-28.223 8.71096,-7.53886 19.81153,-7.90893 30.30458,-10.10152 30.71234,13.45407 40.0046,-27.0298 29.29442,-38.3858 -34.94093,-22.91233 -64.57799,-46.88543 -94.95434,-70.71068 -18.81504,-3.02913 -24.83736,-18.33927 -19.84591,-44.22263 -39.72707,-94.6247 -58.6063,-96.59239 -82.17949,-119.42207 C 96.87518,340.87647 44.19458,332.3401 -9.09137,327.07268 c -54.94072,-2.47455 -110.82716,-5.80026 -156.57365,0 -54.97028,4.78047 -96.10388,20.63029 -127.27922,44.44671 -36.94745,26.1465 -65.19165,51.45074 -72.73098,74.75128 -39.75642,111.05261 -23.97701,146.54415 -23.23351,161.6244 25.41353,77.68685 53.69884,74.96413 80.8122,105.05587 10.92484,21.51772 20.32857,50.64097 27.44744,91.18857 -15.07116,26.58315 -25.80864,49.85855 -12.82561,91.40394 -10.26962,10.92851 -12.50405,25.30068 -16.47933,38.92676 -37.08513,18.99663 -69.69657,37.46694 -74.80205,52.70125 -10.01865,7.07458 -17.73156,14.14914 -22.98841,21.22374 z"
       style="fill:#858585;fill-opacity:1;fill-rule:evenodd;stroke:#858585;stroke-width:1px;stroke-linecap:butt;stroke-linejoin:miter;stroke-opacity:1" />
  </g>
  <g
     inkscape:groupmode="layer"
     id="layer2"
     inkscape:label="Layer 2"
     transform="translate(408.59578,-323.3517)"
     style="display:inline">
    <path
       style="fill:#858585;fill-opacity:1;fill-rule:evenodd;stroke:#858585;stroke-width:1px;stroke-linecap:butt;stroke-linejoin:miter;stroke-opacity:1"
       d="m 191.85603,860.12052 23.20505,-8.16257 c 0,0 19.04389,-4.69237 28.76972,-5.65664 7.53918,-0.74747 15.15338,0.0573 22.72828,-0.0796 8.09084,-0.14621 24.26354,-0.79217 24.26354,-0.79217 13.27246,-2.30792 19.87551,-5.40151 23.29699,-9.58581 11.54476,-8.36473 10.88074,-14.60619 11.92842,-21.14533 -5.99901,-29.9613 -18.26758,-34.84438 -25.46421,-60.01522 -0.28863,-4.51771 -0.73935,-12.1816 1.45153,-18.18796 2.50788,-1.29527 5.39408,-4.8605 8.37403,-8.98821 -0.2704,-5.13516 0.11685,-10.53338 -2.39631,-14.77144 -2.81486,-4.4806 -5.76068,-7.80641 -10.45982,-8.51847 -7.63142,-2.16205 -14.95352,0.29963 -21.98423,1.29545 -2.50196,1.06698 -5.47573,2.47081 -5.65627,5.39493 -2.83096,8.82878 -1.84282,14.85687 -1.22816,21.15886 2.12061,4.15568 0.63894,3.61274 7.62565,14.11551 l 1.44746,16.01529 c -5.16596,-8.68713 -9.87094,-20.73279 -16.60673,-17.98251 l -2.58146,-22.13542 c -3.13741,-6.00722 -5.2029,-5.85092 -7.42903,-6.61832 -1.21754,1.30416 -2.30203,2.66534 -1.88091,4.67179 l -1.51272,2.68833 -0.94373,-3.1687 c 0.16349,-2.18428 -3.06521,-4.03431 -4.78374,-4.57183 -1.23024,2.90433 -1.72868,5.91321 -1.29281,9.05556 l -0.73158,9.32941 c -1.59502,-0.57382 -3.27664,-0.45473 -4.65053,-2.79756 0.52756,-7.76256 -7.88624,-9.445 -12.6746,-13.59273 -14.56264,-5.33261 -29.69885,-5.69433 -44.96922,-4.89327 -22.17864,0.20207 -29.49573,0.58652 -44.11194,2.37549 -7.76241,0.95009 -23.03978,4.42577 -23.03978,4.42577 -25.478641,12.69937 -27.170252,23.4615 -30.038851,33.57771 0,0 -2.705327,22.32519 -2.204653,32.79911 0.510949,10.68885 4.859291,30.21834 4.859291,30.21834 -0.982537,8.65774 -2.355908,18.03201 -1.992241,24.22171 l -1.204933,10.4439 -5.682808,3.35453 c -4.510848,-6.12504 -5.901241,-12.66614 -3.271836,-19.74321 1.437552,-6.85545 2.32352,-8.76514 3.055193,-15.3853 2.186668,-6.59936 -2.485232,-5.5781 -6.502799,-5.28387 -4.573007,0.17923 -3.75752,12.03354 -5.615676,18.09495 -2.708226,22.14188 -2.414872,33.62814 -0.368838,38.8924 2.324842,7.84682 1.436282,18.9256 1.787001,31.59805 4.920001,11.1393 5.631767,15.03819 8.849437,20.41442 0,0 11.795558,7.50832 12.798628,5.48448 1.003068,-2.02384 13.603358,-9.64415 13.603358,-9.64415 l 10.625997,5.51865 8.54555,-11.64677 4.56158,4.52974 20.10916,-26.83966 z"
       id="path4767"
       inkscape:connector-curvature="0"
       inkscape:transform-center-x="-100.54558"
       inkscape:transform-center-y="-84.950326"
       sodipodi:nodetypes="ccsacccccccccccccccccccccccccaccscccccccccccscccccc" />
  </g>
</svg>
